<?xml version="1.0" standalone="no"?>
<!DOCTYPE svg PUBLIC "-//W3C//DTD SVG 20010904//EN"
 "http://www.w3.org/TR/2001/REC-SVG-20010904/DTD/svg10.dtd">
<svg version="1.0" xmlns="http://www.w3.org/2000/svg"
 width="876.000000pt" height="83.000000pt" viewBox="0 0 876.000000 83.000000"
 preserveAspectRatio="xMidYMid meet">

<g transform="translate(0.000000,83.000000) scale(0.100000,-0.100000)"
fill="#000000" stroke="none">
<path d="M4883 820 c-17 -4 -44 -16 -59 -27 -17 -12 -109 -164 -245 -403 -121
-210 -219 -384 -219 -386 0 -2 141 -4 314 -4 l314 0 53 92 c85 146 58 138 458
138 207 0 351 4 374 11 22 6 54 25 72 42 40 39 285 472 285 504 0 16 -8 27
-26 33 -30 12 -1272 12 -1321 0z m658 -80 c10 -6 19 -18 19 -27 0 -9 -44 -92
-97 -185 -83 -145 -104 -173 -139 -194 -62 -36 -124 -27 -124 18 0 23 171 327
198 351 46 42 105 57 143 37z"/>
<path d="M6332 763 c-181 -312 -393 -690 -398 -708 -4 -16 1 -27 17 -39 21
-14 130 -16 1154 -16 711 0 1143 4 1165 10 46 13 87 56 144 153 58 99 64 122
38 136 -14 7 -136 11 -360 11 -330 0 -339 1 -358 21 -18 20 -18 21 9 72 15 29
60 108 100 177 59 102 79 129 112 147 47 26 97 30 119 7 20 -19 13 -38 -73
-188 -33 -60 -61 -110 -61 -112 0 -2 141 -4 313 -4 l313 0 93 165 c51 91 95
173 98 184 3 12 -3 24 -18 35 -21 14 -90 16 -664 16 -674 -1 -687 -2 -736 -46
-29 -26 -289 -486 -289 -511 0 -11 7 -24 16 -27 9 -3 166 -6 350 -6 212 0 342
-4 355 -10 43 -23 5 -100 -65 -134 -30 -14 -96 -16 -559 -16 -587 0 -566 -2
-534 65 12 24 277 492 384 678 2 4 -138 7 -311 7 l-315 0 -39 -67z"/>
<path d="M479 799 c-43 -25 -21 10 -271 -429 l-208 -365 313 -3 c288 -2 313
-1 325 15 7 10 31 50 52 90 42 76 83 113 127 116 24 2 28 -3 35 -38 4 -22 15
-73 24 -112 l15 -73 914 0 915 0 20 40 20 40 -109 0 c-125 0 -141 4 -141 34 0
12 73 149 163 306 195 342 182 330 362 330 l111 0 17 29 c9 16 17 32 17 35 0
3 -269 6 -598 6 l-598 0 -17 -29 c-9 -16 -17 -32 -17 -35 0 -3 49 -6 109 -6
120 0 148 -11 135 -54 -4 -11 -77 -143 -162 -293 -103 -179 -166 -280 -186
-295 -29 -21 -42 -23 -187 -26 l-156 -3 -12 58 c-7 32 -15 66 -17 75 -4 13 3
19 23 24 40 9 97 42 111 64 6 10 68 119 137 241 88 156 125 230 123 248 l-3
26 -675 2 c-667 3 -675 2 -711 -18z m702 -59 c10 -6 19 -18 19 -28 0 -30 -190
-351 -222 -373 -36 -26 -102 -36 -123 -19 -8 7 -15 21 -15 33 0 18 135 261
183 331 20 29 87 65 120 66 10 0 27 -5 38 -10z"/>
<path d="M3297 798 c-34 -20 -64 -69 -258 -406 -120 -212 -219 -386 -219 -388
0 -2 142 -3 316 -2 l316 3 52 89 c80 140 45 130 469 136 391 5 393 6 443 62
12 12 79 124 148 248 88 155 126 232 124 250 l-3 25 -675 2 -675 3 -38 -22z
m704 -58 c10 -6 19 -19 19 -28 0 -10 -44 -94 -98 -188 -83 -141 -105 -173
-138 -191 -61 -35 -124 -25 -124 19 0 23 172 328 199 352 45 41 104 56 142 36z"/>
</g>
</svg>
